<?xml version="1.0" standalone="no"?>
<!DOCTYPE svg PUBLIC "-//W3C//DTD SVG 20010904//EN"
 "http://www.w3.org/TR/2001/REC-SVG-20010904/DTD/svg10.dtd">
<svg version="1.0" xmlns="http://www.w3.org/2000/svg"
 width="1200.000000pt" height="1200.000000pt" viewBox="0 0 1200.000000 1200.000000"
 preserveAspectRatio="xMidYMid meet">
<metadata>
Created by potrace 1.16, written by Peter Selinger 2001-2019
</metadata>
<g transform="translate(0.000000,1200.000000) scale(0.100000,-0.100000)"
fill="#000000" stroke="none">
<path d="M6961 11768 c-37 -5 -158 -44 -278 -89 -218 -81 -317 -109 -458 -129
-138 -19 -337 -24 -467 -11 -529 51 -545 54 -665 97 -197 71 -233 70 -361 -16
-85 -56 -113 -68 -286 -111 -27 -7 -64 -25 -82 -41 -38 -34 -154 -99 -239
-135 -33 -14 -82 -36 -110 -49 -127 -59 -401 -178 -600 -258 -444 -181 -532
-248 -667 -511 -108 -210 -250 -662 -312 -991 -32 -171 -77 -526 -86 -684 -13
-213 -19 -270 -69 -730 -24 -212 -47 -398 -53 -415 -22 -66 -28 -105 -34 -217
l-7 -117 26 -10 c32 -12 481 -57 742 -73 105 -7 272 -13 373 -13 175 0 183 -1
187 -20 13 -67 56 -539 59 -654 2 -42 8 -796 14 -1676 29 -4051 33 -4390 45
-4402 15 -15 125 -28 407 -48 124 -9 347 -25 495 -35 271 -20 391 -26 1145
-56 346 -13 494 -14 1010 -5 959 18 1475 38 1690 66 140 19 147 21 156 48 4
12 8 422 9 912 1 518 6 969 13 1080 6 114 13 789 18 1680 3 820 9 1533 13
1585 4 52 3 221 -1 375 -5 173 -5 356 2 480 5 110 15 340 20 510 10 298 33
564 50 595 7 13 10 12 16 -3 4 -10 2 -23 -5 -30 -15 -15 -14 -36 3 -69 9 -17
13 -41 9 -63 -5 -34 18 -119 37 -130 5 -3 170 15 367 39 390 49 612 70 913 87
107 6 211 14 230 18 l35 7 -1 64 c-3 110 -11 166 -32 206 -10 21 -31 84 -46
139 -136 506 -346 1222 -445 1516 -234 697 -332 975 -370 1054 -41 85 -166
277 -235 359 -22 27 -61 79 -86 115 -75 109 -94 119 -640 314 -293 105 -352
124 -733 231 -151 43 -214 66 -264 96 -37 22 -82 42 -102 45 -78 13 -157 38
-187 61 -33 26 -56 28 -163 12z m-1001 -1940 c0 -6 -8 -20 -17 -30 -16 -18
-16 -18 0 -12 9 3 17 10 17 15 0 5 4 9 8 9 16 0 58 -76 96 -171 42 -105 79
-174 143 -265 24 -34 43 -65 43 -69 0 -4 -26 -6 -57 -5 -87 3 -91 2 -65 -19
12 -11 22 -23 22 -27 0 -28 71 -60 82 -36 2 4 18 15 37 25 32 17 35 17 50 2
15 -15 14 -18 -6 -32 -33 -22 -28 -33 16 -33 39 0 68 -20 56 -40 -3 -5 -13
-10 -20 -10 -20 0 -125 -51 -125 -60 0 -8 83 -20 138 -20 29 0 32 3 27 20 -4
11 -2 20 4 20 13 0 128 -193 173 -290 11 -25 34 -64 50 -87 16 -24 24 -43 18
-43 -5 0 -10 5 -10 10 0 6 -4 10 -10 10 -15 0 -11 -71 5 -100 8 -14 14 -42 15
-62 0 -33 4 -40 33 -52 41 -17 46 -12 17 19 -31 34 -18 43 18 14 41 -33 63
-71 52 -89 -8 -12 -20 -9 -75 18 -36 17 -68 32 -71 32 -9 0 85 -72 149 -115
31 -21 57 -41 57 -46 0 -4 8 -10 18 -13 20 -7 47 -61 37 -76 -9 -14 -36 -12
-54 4 -20 18 -133 77 -127 67 3 -4 46 -35 95 -67 50 -32 91 -64 91 -71 0 -22
-22 -25 -48 -6 -50 36 -55 37 -47 14 12 -39 -6 -44 -36 -10 -16 18 -29 36 -29
41 0 4 -9 17 -20 28 -24 24 -49 28 -29 4 11 -14 11 -18 -4 -29 -10 -7 -15 -19
-11 -28 6 -16 -26 -40 -49 -35 -6 1 -37 -2 -69 -6 -40 -5 -63 -3 -78 6 -18 10
-24 10 -27 1 -7 -20 -43 -15 -101 12 -30 14 -58 25 -63 25 -14 0 -11 -38 4
-44 6 -3 -6 -3 -28 0 -46 7 -66 27 -110 111 -16 32 -38 68 -49 80 -19 22 -24
31 -59 93 -20 34 -14 56 8 27 7 -9 21 -29 31 -43 21 -29 54 -68 40 -47 -13 19
1 28 18 13 9 -6 21 -10 28 -8 8 3 1 11 -17 21 -31 17 -66 47 -99 85 -19 22
-19 22 0 43 l19 22 -33 -5 c-30 -4 -35 -1 -69 51 -20 31 -49 75 -65 99 -15 24
-28 47 -28 52 0 5 -13 35 -30 65 -16 30 -30 58 -30 62 0 14 37 -34 65 -84 19
-33 32 -48 37 -40 5 8 49 14 120 17 99 5 110 7 85 18 -15 6 -55 14 -89 17 -34
3 -67 10 -72 14 -6 5 -28 11 -48 15 -34 6 -41 15 -104 118 -37 62 -89 141
-116 176 -27 36 -65 97 -85 136 -19 39 -50 91 -67 116 -46 66 -78 122 -71 128
6 6 3 10 44 -55 31 -50 58 -72 44 -37 -4 11 1 22 13 31 18 13 17 16 -23 49
-24 20 -43 39 -43 44 0 11 97 83 165 121 70 39 155 98 155 107 0 4 14 13 31
21 17 7 45 29 62 47 34 35 47 42 47 22z m-635 -659 c20 -28 39 -58 42 -67 4
-10 27 -48 53 -87 85 -128 265 -476 257 -499 -2 -5 -25 30 -52 80 -157 291
-207 378 -225 399 -10 11 -34 54 -54 95 -20 41 -45 84 -56 95 -22 23 -25 35
-11 35 5 0 26 -23 46 -51z m30 -206 c55 -109 99 -204 98 -213 -1 -8 -4 -35 -7
-60 l-5 -45 10 38 c11 38 35 49 45 22 4 -9 -1 -45 -10 -82 -12 -46 -14 -69 -6
-77 7 -7 10 -3 10 12 0 12 4 30 9 40 5 9 12 25 15 35 3 9 9 17 13 17 14 0 65
-100 59 -116 -3 -9 2 -17 12 -21 22 -9 42 -29 42 -42 0 -5 10 -17 21 -25 13
-9 19 -21 16 -30 -4 -10 -1 -16 8 -16 8 0 19 -10 26 -21 6 -12 26 -42 45 -66
19 -25 34 -53 34 -62 0 -10 16 -38 35 -62 49 -62 46 -68 -24 -65 -32 2 -63 6
-68 9 -5 3 -15 2 -23 -4 -30 -18 -55 -10 -67 21 -8 20 -18 30 -32 30 -12 0
-21 -6 -21 -12 0 -7 -9 -24 -20 -38 -19 -24 -21 -24 -34 -7 -9 12 -16 14 -21
8 -7 -12 -57 -14 -92 -5 -16 4 -23 14 -23 30 0 17 -6 24 -20 24 -11 0 -20 7
-20 15 0 8 -7 15 -15 15 -10 0 -15 -10 -15 -29 0 -17 -4 -33 -10 -36 -5 -3
-10 -21 -10 -40 l0 -34 -80 1 -81 2 -46 73 c-51 82 -52 106 -2 44 22 -28 38
-39 49 -36 11 4 21 -3 28 -20 19 -41 34 -29 16 13 -9 20 -22 57 -29 82 l-12
45 -11 -27 c-12 -29 -19 -32 -46 -22 -10 4 -16 18 -16 39 0 33 -17 49 -43 40
-7 -3 -21 11 -32 32 -11 21 -34 59 -52 84 -18 26 -33 51 -33 56 0 6 -7 16 -16
24 -8 7 -40 54 -70 103 -30 50 -73 115 -94 144 -41 57 -42 70 -9 90 19 12 20
11 15 -6 -7 -21 9 -72 22 -72 5 0 7 23 6 52 -3 39 0 54 14 64 9 7 20 14 25 14
4 0 7 -37 8 -82 l1 -83 14 84 c8 47 16 87 19 89 2 3 11 0 19 -7 11 -9 15 -5
20 24 4 22 13 35 22 35 10 0 14 -6 11 -17 -14 -51 -16 -73 -8 -73 4 0 11 14
15 31 3 17 17 44 31 61 14 16 25 35 25 43 0 21 27 25 60 8 38 -19 51 -10 20
15 -20 16 -21 19 -6 31 15 12 21 11 46 -8 17 -12 30 -17 30 -12 0 6 -8 15 -17
20 -16 10 -16 11 5 17 13 4 21 12 18 20 -8 21 18 34 57 27 35 -5 51 7 27 22
-13 8 -3 25 13 25 7 0 57 -89 112 -197z m-850 -672 c-21 -50 -36 -94 -33 -97
3 -3 23 31 43 76 21 44 43 85 50 90 8 6 30 -10 72 -53 70 -71 203 -237 203
-253 0 -6 -26 -14 -57 -18 -32 -3 -77 -9 -101 -12 -38 -4 -44 -2 -49 15 -7 28
-15 26 -35 -9 -12 -21 -25 -30 -45 -32 -70 -3 -111 -7 -144 -13 -36 -7 -36 -6
-42 32 -4 21 -7 83 -7 138 0 149 -21 109 -28 -54 -2 -72 -9 -131 -13 -131 -5
0 -15 15 -22 33 -13 31 -14 31 -21 9 -13 -40 -31 -18 -30 37 1 28 -1 51 -5 51
-8 0 -41 -71 -41 -87 0 -5 -9 -18 -21 -29 -20 -18 -20 -18 -14 11 7 29 7 29
-8 10 l-16 -20 -15 20 c-12 16 -13 22 -2 30 7 6 11 16 8 23 -2 7 4 22 14 33
24 27 10 35 -23 14 -59 -38 154 152 237 212 49 35 91 63 94 63 3 0 6 -7 6 -15
0 -25 19 -17 36 16 14 28 17 30 31 16 14 -14 12 -24 -22 -106z"/>
</g>
</svg>
